<svg id="Capa_1" data-name="Capa 1" xmlns="http://www.w3.org/2000/svg" viewBox="0 0 155.91 80.74"><defs><style>.cls-1{fill:#c51a1b;}</style></defs><polygon class="cls-1" points="128.62 33.81 124.16 43.83 133.31 43.83 128.75 33.81 128.62 33.81"/><polygon class="cls-1" points="27.15 33.81 22.69 43.83 31.84 43.83 27.29 33.81 27.15 33.81"/><path class="cls-1" d="M7.09,44.67v80.74H163V44.67ZM48.67,99.38h-4a1.29,1.29,0,0,1-1.32-.91l-2.24-4.92H27.55l-2.24,4.92a1.37,1.37,0,0,1-1.31.91H20a.8.8,0,0,1-.78-1.18L33.42,67.56a.81.81,0,0,1,.77-.5h.46a.78.78,0,0,1,.77.5l14,30.64A.8.8,0,0,1,48.67,99.38Zm24.49-.87a.87.87,0,0,1-.87.87H55.63a.86.86,0,0,1-.86-.87V68.38a.86.86,0,0,1,.86-.86h4.19a.9.9,0,0,1,.87.86V93.92h11.6a.87.87,0,0,1,.87.86Zm41,.87H110a1,1,0,0,1-.86-.68l-2.69-17.26h-.14l-8,17.89a.76.76,0,0,1-.77.5h-.82a.82.82,0,0,1-.78-.5l-8-17.89h-.14L85.13,98.7a.89.89,0,0,1-.82.68h-4.1a.83.83,0,0,1-.86-1l5.42-30.59a.76.76,0,0,1,.82-.68h.72a.83.83,0,0,1,.78.46L97.1,89h.14l10-21.48a.79.79,0,0,1,.78-.46h.72a.77.77,0,0,1,.82.68l5.37,30.59A.79.79,0,0,1,114.12,99.38Zm36,0h-4a1.31,1.31,0,0,1-1.32-.91l-2.23-4.92H129l-2.23,4.92a1.37,1.37,0,0,1-1.32.91h-4a.8.8,0,0,1-.77-1.18l14.15-30.64a.83.83,0,0,1,.78-.5h.45a.78.78,0,0,1,.78.5l14,30.64A.8.8,0,0,1,150.13,99.38Z" transform="translate(-7.09 -44.67)"/></svg>